<svg xmlns="http://www.w3.org/2000/svg" id="td-logo" data-name="Trading Demo Logo" viewBox="0 0 500 500"><defs><style>path{fill:#000}</style></defs><path d="M193.7,185.26v215.12h-85.43v-218.07H31.4v-82.85c2.06,0,4.01,0,5.97,0,93.83,0,187.66-.03,281.49,0,75.91.02,140.04,56.56,149.19,131.47,9.87,80.82-42.64,152.52-122.8,167.4-7.82,1.45-15.88,2.2-23.84,2.27-30.16.26-60.33.12-90.5.1-1.29,0-2.59-.16-4.02-.26v-182.2h85.12v96.83c21.88,1.63,40.08-4.85,54.26-20.42,18.52-20.34,23.34-44.14,12.57-69.54-10.81-25.49-31.23-39.39-58.91-39.93-40.65-.8-81.33-.21-121.99-.2-1.14,0-2.28.15-4.23.29Z"/></svg>